<svg width="26" height="26" viewBox="0 0 26 26" fill="none" xmlns="http://www.w3.org/2000/svg">
<g clip-path="url(#clip0_165_5888)">
<path d="M12.8164 8.42399C10.4582 8.42399 8.55613 10.2964 8.55613 12.6177C8.55613 14.9391 10.4582 16.8115 12.8164 16.8115C15.1746 16.8115 17.0767 14.9391 17.0767 12.6177C17.0767 10.2964 15.1746 8.42399 12.8164 8.42399ZM12.8164 15.3442C11.2925 15.3442 10.0467 14.1215 10.0467 12.6177C10.0467 11.114 11.2888 9.89125 12.8164 9.89125C14.3441 9.89125 15.5862 11.114 15.5862 12.6177C15.5862 14.1215 14.3404 15.3442 12.8164 15.3442ZM18.2447 8.25244C18.2447 8.79628 17.7998 9.23062 17.251 9.23062C16.6985 9.23062 16.2573 8.79263 16.2573 8.25244C16.2573 7.71226 16.7022 7.27427 17.251 7.27427C17.7998 7.27427 18.2447 7.71226 18.2447 8.25244ZM21.0664 9.24522C21.0033 7.9349 20.6993 6.77423 19.7241 5.81796C18.7527 4.86168 17.5736 4.56239 16.2425 4.49669C14.8706 4.42005 10.7586 4.42005 9.38669 4.49669C8.05928 4.55874 6.88019 4.85803 5.90503 5.81431C4.92987 6.77058 4.62953 7.93125 4.56279 9.24156C4.48493 10.592 4.48493 14.6398 4.56279 15.9902C4.62583 17.3005 4.92987 18.4612 5.90503 19.4175C6.88019 20.3738 8.05557 20.6731 9.38669 20.7387C10.7586 20.8154 14.8706 20.8154 16.2425 20.7387C17.5736 20.6767 18.7527 20.3774 19.7241 19.4175C20.6956 18.4612 20.9996 17.3005 21.0664 15.9902C21.1442 14.6398 21.1442 10.5957 21.0664 9.24522ZM19.294 17.4392C19.0048 18.1546 18.4449 18.7058 17.7145 18.9941C16.6207 19.4211 14.0252 19.3226 12.8164 19.3226C11.6077 19.3226 9.00849 19.4175 7.91838 18.9941C7.19165 18.7094 6.63176 18.1583 6.33885 17.4392C5.90503 16.3625 6.00514 13.8076 6.00514 12.6177C6.00514 11.4279 5.90874 8.86928 6.33885 7.7962C6.62806 7.08082 7.18794 6.52969 7.91838 6.24135C9.01219 5.81431 11.6077 5.91286 12.8164 5.91286C14.0252 5.91286 16.6244 5.81796 17.7145 6.24135C18.4412 6.52604 19.0011 7.07717 19.294 7.7962C19.7278 8.87293 19.6277 11.4279 19.6277 12.6177C19.6277 13.8076 19.7278 16.3662 19.294 17.4392Z" fill="#F5F5F5"/>
</g>
<defs>
<clipPath id="clip0_165_5888">
<rect width="16.6111" height="18.6875" fill="white" transform="translate(4.50732 3.27783)"/>
</clipPath>
</defs>
</svg>
