<svg width="17" height="16" viewBox="0 0 17 16" fill="none" xmlns="http://www.w3.org/2000/svg">
<g clip-path="url(#clip0_165_5894)">
<path d="M3.78901 15.8889V5.38182H0.227694L0.227694 15.8889H3.78901ZM2.00881 3.9464C3.25071 3.9464 4.02373 3.13958 4.02373 2.13133C4.00059 1.10034 3.25076 0.315918 2.03238 0.315918C0.814197 0.315918 0.0175781 1.10036 0.0175781 2.13133C0.0175781 3.13963 0.790408 3.9464 1.98557 3.9464H2.0087H2.00881ZM5.76019 15.8889H9.32151V10.0212C9.32151 9.70718 9.34465 9.39348 9.4387 9.169C9.69615 8.54158 10.2821 7.89175 11.2659 7.89175C12.5546 7.89175 13.0702 8.85528 13.0702 10.2677V15.8888H16.6313V9.86414C16.6313 6.63679 14.8743 5.13514 12.5312 5.13514C10.61 5.13514 9.76644 6.18822 9.29782 6.90546H9.32159V5.3816H5.76027C5.80701 6.36752 5.76027 15.8886 5.76027 15.8886L5.76019 15.8889Z" fill="#F5F5F5"/>
</g>
<defs>
<clipPath id="clip0_165_5894">
<rect width="16.6111" height="15.5729" fill="white" transform="translate(0.0175781 0.315918)"/>
</clipPath>
</defs>
</svg>
