<svg width="25" height="26" viewBox="0 0 25 26" fill="none" xmlns="http://www.w3.org/2000/svg">
<g clip-path="url(#clip0_165_5877)">
<path d="M11.6447 22.5658C9.6689 20.0924 5.27441 14.0976 5.27441 10.7304C5.27441 6.64501 8.52807 3.33325 12.5418 3.33325C16.554 3.33325 19.8091 6.64501 19.8091 10.7304C19.8091 14.0976 15.3806 20.0924 13.4388 22.5658C12.9733 23.1553 12.1103 23.1553 11.6447 22.5658ZM12.5418 13.1961C13.8779 13.1961 14.9642 12.0904 14.9642 10.7304C14.9642 9.37039 13.8779 8.26468 12.5418 8.26468C11.2056 8.26468 10.1193 9.37039 10.1193 10.7304C10.1193 12.0904 11.2056 13.1961 12.5418 13.1961Z" fill="#F5F5F5"/>
</g>
<defs>
<clipPath id="clip0_165_5877">
<rect width="14.5347" height="19.7257" fill="white" transform="translate(5.27441 3.33325)"/>
</clipPath>
</defs>
</svg>
