<svg width="25" height="26" viewBox="0 0 25 26" fill="none" xmlns="http://www.w3.org/2000/svg">
<path d="M4.90467 5.67383H21.412C22.9693 5.67383 23.7541 6.40887 23.7541 7.90387V18.3938C23.7541 19.8763 22.9693 20.6238 21.412 20.6238H4.90467C3.34737 20.6238 2.5625 19.8763 2.5625 18.3938V7.90387C2.5625 6.40887 3.34737 5.67383 4.90467 5.67383ZM13.1521 16.388L21.549 9.49854C21.848 9.24937 22.0847 8.67629 21.711 8.16549C21.3497 7.6547 20.6894 7.64224 20.2533 7.9537L13.1521 12.7626L6.06329 7.9537C5.62725 7.64224 4.96696 7.6547 4.60567 8.16549C4.23192 8.67629 4.46862 9.24937 4.76762 9.49854L13.1521 16.388Z" fill="#F5F5F5"/>
</svg>
