<svg width="60" height="60" viewBox="0 0 60 60" fill="none" xmlns="http://www.w3.org/2000/svg">
<path fill-rule="evenodd" clip-rule="evenodd" d="M30.0001 10C24.4773 10 20.0001 14.4772 20.0001 20C20.0001 25.5228 24.4773 30 30.0001 30C35.523 30 40.0001 25.5228 40.0001 20C40.0001 14.4772 35.523 10 30.0001 10ZM39.1026 31.9234C42.6876 29.1825 45.0001 24.8613 45.0001 20C45.0001 11.7157 38.2844 5 30.0001 5C21.7159 5 15.0001 11.7157 15.0001 20C15.0001 24.8613 17.3127 29.1825 20.8977 31.9234C18.384 33.0354 16.0714 34.6089 14.0902 36.5901C12.5604 38.1199 11.2735 39.8476 10.2546 41.7128C8.37428 45.1548 9.14109 48.6643 11.2586 51.1459C13.2971 53.535 16.5627 55 20.0001 55H40.0001C43.4376 55 46.7031 53.535 48.7417 51.1459C50.8592 48.6643 51.626 45.1548 49.7457 41.7128C48.7268 39.8476 47.4399 38.1199 45.91 36.5901C43.9289 34.6089 41.6163 33.0354 39.1026 31.9234ZM30.0001 35C25.3589 35 20.9077 36.8437 17.6258 40.1256C16.4358 41.3156 15.435 42.6592 14.6425 44.1098C13.8751 45.5146 14.1227 46.7994 15.0622 47.9005C16.0806 49.0941 17.9147 50 20.0001 50H40.0001C42.0855 50 43.9196 49.0941 44.9381 47.9005C45.8776 46.7994 46.1252 45.5146 45.3577 44.1098C44.5653 42.6592 43.5645 41.3156 42.3745 40.1256C39.0926 36.8437 34.6414 35 30.0001 35Z" fill="white"/>
</svg>
