<svg width="25" height="26" viewBox="0 0 25 26" fill="none" xmlns="http://www.w3.org/2000/svg">
<g clip-path="url(#clip0_165_5871)">
<path d="M3.45114 5.76455L6.04257 3.17555C6.22537 2.99195 6.44265 2.84627 6.68192 2.74689C6.92119 2.6475 7.17774 2.59637 7.43683 2.59644C7.96485 2.59644 8.46124 2.80326 8.83353 3.17555L11.6221 5.96408C11.8057 6.14688 11.9513 6.36416 12.0507 6.60343C12.1501 6.8427 12.2012 7.09925 12.2012 7.35834C12.2012 7.88636 11.9943 8.38275 11.6221 8.75504L9.58297 10.7941C10.0603 11.8462 10.7239 12.8032 11.5418 13.6191C12.3576 14.439 13.3146 15.105 14.3668 15.5852L16.4059 13.5461C16.5887 13.3625 16.8059 13.2169 17.0452 13.1175C17.2845 13.0181 17.541 12.967 17.8001 12.967C18.3281 12.967 18.8245 13.1739 19.1968 13.5461L21.9878 16.3322C22.1716 16.5154 22.3174 16.7331 22.4168 16.9728C22.5162 17.2125 22.5672 17.4694 22.5669 17.7289C22.5669 18.257 22.3601 18.7533 21.9878 19.1256L19.4012 21.7122C18.8075 22.3083 17.9875 22.6466 17.1456 22.6466C16.9679 22.6466 16.7976 22.632 16.6297 22.6028C13.3497 22.0626 10.0964 20.3179 7.4709 17.6949C4.84783 15.0742 3.10561 11.8234 2.55813 8.53361C2.39267 7.52867 2.72602 6.49453 3.45114 5.76455Z" fill="#F5F5F5"/>
</g>
<defs>
<clipPath id="clip0_165_5871">
<rect width="24.9167" height="24.9167" fill="white" transform="matrix(-1 0 0 1 25.0005 0.163574)"/>
</clipPath>
</defs>
</svg>
