<svg width="26" height="26" viewBox="0 0 26 26" fill="none" xmlns="http://www.w3.org/2000/svg">
<g clip-path="url(#clip0_165_5896)">
<path d="M22.1382 7.1246C21.4384 7.41993 20.6962 7.61379 19.9361 7.69973C20.7278 7.24769 21.3356 6.53187 21.6219 5.67898C20.8693 6.10444 20.0459 6.40421 19.1873 6.56532C18.4879 5.85549 17.4916 5.41187 16.3888 5.41187C14.2714 5.41187 12.5547 7.04726 12.5547 9.06432C12.5547 9.35063 12.5887 9.62937 12.654 9.89676C9.46762 9.74439 6.6426 8.2903 4.75158 6.08046C4.42163 6.61992 4.23257 7.24741 4.23257 7.9167C4.23257 9.18394 4.90948 10.3019 5.93816 10.9569C5.32932 10.9387 4.73388 10.7821 4.20154 10.5C4.20132 10.5153 4.20132 10.5306 4.20132 10.546C4.20132 12.3156 5.52288 13.7919 7.27673 14.1275C6.71215 14.2738 6.11995 14.2952 5.54536 14.1901C6.03321 15.6412 7.44915 16.6971 9.12679 16.7267C7.81465 17.7063 6.16147 18.2902 4.36528 18.2902C4.05576 18.2902 3.75063 18.2729 3.45068 18.2392C5.14738 19.2755 7.16263 19.8802 9.32776 19.8802C16.3799 19.8802 20.2361 14.3146 20.2361 9.48791C20.2361 9.32949 20.2325 9.17198 20.2251 9.01536C20.9756 8.49843 21.6235 7.85816 22.1382 7.1246Z" fill="#F5F5F5"/>
</g>
<defs>
<clipPath id="clip0_165_5896">
<rect width="18.6875" height="14.5347" fill="white" transform="translate(3.45068 5.35449)"/>
</clipPath>
</defs>
</svg>
